<svg width="24" height="25" viewBox="0 0 24 25" fill="none" xmlns="http://www.w3.org/2000/svg">
<path d="M9.1071 5.948C9.7051 4.198 12.1231 4.145 12.8321 5.789L12.8921 5.949L13.6991 8.309C13.884 8.85023 14.1829 9.34551 14.5755 9.76142C14.9682 10.1773 15.4454 10.5042 15.9751 10.72L16.1921 10.801L18.5521 11.607C20.3021 12.205 20.3551 14.623 18.7121 15.332L18.5521 15.392L16.1921 16.199C15.6507 16.3838 15.1552 16.6826 14.7391 17.0753C14.323 17.4679 13.996 17.9452 13.7801 18.475L13.6991 18.691L12.8931 21.052C12.2951 22.802 9.8771 22.855 9.1691 21.212L9.1071 21.052L8.3011 18.692C8.11628 18.1506 7.81748 17.6551 7.42485 17.239C7.03221 16.8229 6.5549 16.4959 6.0251 16.28L5.8091 16.199L3.4491 15.393C1.6981 14.795 1.6451 12.377 3.2891 11.669L3.4491 11.607L5.8091 10.801C6.35034 10.6161 6.84562 10.3172 7.26153 9.92457C7.67744 9.53195 8.00432 9.05469 8.2201 8.525L8.3011 8.309L9.1071 5.948ZM11.0001 6.594L10.1941 8.954C9.9125 9.7793 9.45437 10.5333 8.85164 11.1635C8.24891 11.7937 7.51605 12.2849 6.7041 12.603L6.4541 12.694L4.0941 13.5L6.4541 14.306C7.27941 14.5876 8.03341 15.0457 8.6636 15.6485C9.29379 16.2512 9.78503 16.9841 10.1031 17.796L10.1941 18.046L11.0001 20.406L11.8061 18.046C12.0877 17.2207 12.5458 16.4667 13.1486 15.8365C13.7513 15.2063 14.4842 14.7151 15.2961 14.397L15.5461 14.307L17.9061 13.5L15.5461 12.694C14.7208 12.4124 13.9668 11.9543 13.3366 11.3515C12.7064 10.7488 12.2152 10.0159 11.8971 9.204L11.8071 8.954L11.0001 6.594ZM19.0001 2.5C19.1872 2.5 19.3705 2.55248 19.5293 2.65147C19.688 2.75046 19.8158 2.892 19.8981 3.06L19.9461 3.177L20.2961 4.203L21.3231 4.553C21.5106 4.6167 21.6749 4.73462 21.7953 4.89182C21.9157 5.04902 21.9867 5.23842 21.9994 5.43602C22.012 5.63362 21.9657 5.83053 21.8663 6.00179C21.7669 6.17304 21.6189 6.31094 21.4411 6.398L21.3231 6.446L20.2971 6.796L19.9471 7.823C19.8833 8.01043 19.7653 8.1747 19.608 8.29499C19.4508 8.41529 19.2613 8.48619 19.0637 8.49872C18.8662 8.51125 18.6693 8.46484 18.4981 8.36538C18.3269 8.26591 18.1891 8.11787 18.1021 7.94L18.0541 7.823L17.7041 6.797L16.6771 6.447C16.4896 6.3833 16.3253 6.26538 16.2049 6.10819C16.0845 5.95099 16.0135 5.76158 16.0008 5.56398C15.9882 5.36638 16.0345 5.16947 16.1339 4.99821C16.2333 4.82696 16.3813 4.68906 16.5591 4.602L16.6771 4.554L17.7031 4.204L18.0531 3.177C18.1205 2.97943 18.2481 2.80791 18.4179 2.6865C18.5878 2.56509 18.7913 2.49987 19.0001 2.5Z" fill="black"/>
</svg>
