<svg width="20" height="20" viewBox="0 0 20 20" fill="none" xmlns="http://www.w3.org/2000/svg">
<path d="M7.50004 10.8333H12.5M7.50004 14.1666H10M3.33337 3.33329V16.6666C3.33337 17.1087 3.50897 17.5326 3.82153 17.8451C4.13409 18.1577 4.55801 18.3333 5.00004 18.3333H15C15.4421 18.3333 15.866 18.1577 16.1786 17.8451C16.4911 17.5326 16.6667 17.1087 16.6667 16.6666V6.95163C16.6667 6.72959 16.6223 6.5098 16.5361 6.30516C16.45 6.10052 16.3238 5.91516 16.165 5.75996L12.465 2.14163C12.1537 1.83717 11.7355 1.66668 11.3 1.66663H5.00004C4.55801 1.66663 4.13409 1.84222 3.82153 2.15478C3.50897 2.46734 3.33337 2.89127 3.33337 3.33329Z" stroke="#252528" stroke-width="2" stroke-linecap="round" stroke-linejoin="round"/>
<path d="M11.6667 1.66663V4.99996C11.6667 5.44199 11.8423 5.86591 12.1549 6.17847C12.4675 6.49103 12.8914 6.66663 13.3334 6.66663H16.6667" stroke="#252528" stroke-width="2" stroke-linejoin="round"/>
</svg>
