<svg width="16" height="17" viewBox="0 0 16 17" fill="none" xmlns="http://www.w3.org/2000/svg">
<path d="M10.3134 9.47995C10.3592 9.43083 10.4144 9.39143 10.4757 9.3641C10.537 9.33677 10.6032 9.32208 10.6704 9.32089C10.7375 9.31971 10.8042 9.33206 10.8665 9.3572C10.9287 9.38235 10.9853 9.41978 11.0328 9.46726C11.0802 9.51474 11.1177 9.57129 11.1428 9.63355C11.168 9.69581 11.1803 9.7625 11.1791 9.82963C11.1779 9.89677 11.1632 9.96298 11.1359 10.0243C11.1086 10.0856 11.0692 10.1408 11.0201 10.1866L8.35339 12.8533C8.25964 12.9469 8.13256 12.9995 8.00006 12.9995C7.86756 12.9995 7.74048 12.9469 7.64673 12.8533L4.98006 10.1866C4.93094 10.1408 4.89153 10.0856 4.86421 10.0243C4.83688 9.96298 4.82218 9.89677 4.821 9.82963C4.81982 9.7625 4.83216 9.69581 4.85731 9.63355C4.88246 9.57129 4.91989 9.51474 4.96737 9.46726C5.01485 9.41978 5.0714 9.38235 5.13366 9.3572C5.19592 9.33206 5.26261 9.31971 5.32974 9.32089C5.39688 9.32208 5.46309 9.33677 5.52442 9.3641C5.58575 9.39143 5.64095 9.43083 5.68673 9.47995L7.50006 11.2933V4.83329C7.50006 4.70068 7.55274 4.5735 7.64651 4.47973C7.74028 4.38596 7.86745 4.33329 8.00006 4.33329C8.13267 4.33329 8.25985 4.38596 8.35361 4.47973C8.44738 4.5735 8.50006 4.70068 8.50006 4.83329V11.2933L10.3134 9.47995Z" fill="#66666D"/>
</svg>
