<svg width="18" height="18" viewBox="0 0 18 18" fill="none" xmlns="http://www.w3.org/2000/svg">
<path d="M3 6.57375C3.17083 6.04749 3.48386 5.57873 3.9045 5.21929C4.32513 4.85985 4.83697 4.62373 5.38342 4.53705C5.92988 4.45036 6.48966 4.51649 7.00088 4.72812C7.5121 4.93974 7.95484 5.28862 8.28014 5.73618C8.60544 6.18373 8.80064 6.71253 8.84414 7.26411C8.88765 7.81569 8.77777 8.36855 8.52665 8.86157C8.27554 9.35459 7.89297 9.76857 7.42125 10.0577C6.94954 10.3469 6.40704 10.4999 5.85375 10.5V11.25M5.89125 14.25V14.325H5.81625V14.25H5.89125Z" stroke="black" stroke-linecap="round" stroke-linejoin="round"/>
<path d="M11.68 15V14.24H12.976V10.144H11.912V9.56C12.472 9.464 12.856 9.32 13.2 9.112H13.896V14.24H15.048V15H11.68Z" fill="#252528"/>
</svg>
