<svg width="18" height="18" viewBox="0 0 18 18" fill="none" xmlns="http://www.w3.org/2000/svg">
<path d="M3 6.57375C3.17083 6.04749 3.48386 5.57873 3.9045 5.21929C4.32513 4.85985 4.83697 4.62373 5.38342 4.53705C5.92988 4.45036 6.48966 4.51649 7.00088 4.72812C7.5121 4.93974 7.95484 5.28862 8.28014 5.73618C8.60544 6.18373 8.80064 6.71253 8.84414 7.26411C8.88765 7.81569 8.77777 8.36855 8.52665 8.86157C8.27554 9.35459 7.89297 9.76857 7.42125 10.0577C6.94954 10.3469 6.40704 10.4999 5.85375 10.5V11.25M5.89125 14.25V14.325H5.81625V14.25H5.89125Z" stroke="black" stroke-linecap="round" stroke-linejoin="round"/>
<path d="M11.344 15V14.464C13.088 12.928 13.976 11.784 13.976 10.816C13.976 10.184 13.64 9.744 12.984 9.744C12.52 9.744 12.136 10.032 11.824 10.392L11.296 9.888C11.808 9.336 12.328 9.008 13.096 9.008C14.176 9.008 14.872 9.704 14.872 10.776C14.872 11.904 13.96 13.08 12.712 14.28C13.016 14.248 13.392 14.216 13.68 14.216H15.152V15H11.344Z" fill="#252528"/>
</svg>
