<svg width="24" height="24" viewBox="0 0 24 24" fill="none" xmlns="http://www.w3.org/2000/svg">
<path d="M12.02 22.24C8.404 22.24 5.74 21.472 4.028 19.936C2.316 18.4 1.46 16.208 1.46 13.36C1.46 10.496 2.316 8.232 4.028 6.568C5.74 4.904 8.404 4.072 12.02 4.072C17.076 4.072 20.46 5.808 22.172 9.28C20.732 9.776 19.044 10.52 17.108 11.512C16.644 10.616 15.908 9.952 14.9 9.52C13.908 9.088 12.892 8.872 11.852 8.872C10.316 8.872 9.172 9.28 8.42 10.096C7.668 10.896 7.292 11.888 7.292 13.072C7.292 14.352 7.692 15.4 8.492 16.216C9.308 17.016 10.548 17.416 12.212 17.416C13.54 17.416 14.596 17.2 15.38 16.768C16.164 16.32 16.74 15.616 17.108 14.656C18.42 15.36 20.1 16.152 22.148 17.032C21.348 18.968 20.012 20.32 18.14 21.088C16.268 21.856 14.228 22.24 12.02 22.24Z" fill="#252528"/>
</svg>
