<svg width="18" height="18" viewBox="0 0 18 18" fill="none" xmlns="http://www.w3.org/2000/svg">
<path fill-rule="evenodd" clip-rule="evenodd" d="M6.75 3.9375H13.5C13.9476 3.9375 14.3768 4.11529 14.6932 4.43176C15.0097 4.74822 15.1875 5.17745 15.1875 5.625V12.375C15.1875 12.8226 15.0097 13.2518 14.6932 13.5682C14.3768 13.8847 13.9476 14.0625 13.5 14.0625H6.75V3.9375ZM5.0625 3.9375H4.5C4.05245 3.9375 3.62322 4.11529 3.30676 4.43176C2.99029 4.74822 2.8125 5.17745 2.8125 5.625V12.375C2.8125 12.8226 2.99029 13.2518 3.30676 13.5682C3.62322 13.8847 4.05245 14.0625 4.5 14.0625H5.0625V3.9375ZM1.125 5.625C1.125 4.72989 1.48058 3.87145 2.11351 3.23851C2.74645 2.60558 3.60489 2.25 4.5 2.25H13.5C14.3951 2.25 15.2536 2.60558 15.8865 3.23851C16.5194 3.87145 16.875 4.72989 16.875 5.625V12.375C16.875 13.2701 16.5194 14.1286 15.8865 14.7615C15.2536 15.3944 14.3951 15.75 13.5 15.75H4.5C3.60489 15.75 2.74645 15.3944 2.11351 14.7615C1.48058 14.1286 1.125 13.2701 1.125 12.375V5.625Z" fill="black"/>
</svg>
