<svg width="18" height="18" viewBox="0 0 18 18" fill="none" xmlns="http://www.w3.org/2000/svg">
<g clip-path="url(#clip0_1356_1350)">
<path d="M5.25 16.5V9.29849C5.25 8.49749 5.25 8.09699 5.43375 7.76099C5.61675 7.42499 5.9535 7.20824 6.62775 6.77474L8.18925 5.77124C8.583 5.51849 8.7795 5.39174 9 5.39174C9.2205 5.39174 9.417 5.51849 9.8115 5.77124L11.3723 6.77474C12.0465 7.20824 12.3832 7.42499 12.5662 7.76099C12.75 8.09699 12.75 8.49749 12.75 9.29849V16.5M9 9.74999H9.00675M15.75 16.5V12.1215C15.75 10.4032 14.805 10.2637 12.75 9.74999M2.25 16.5V12.1215C2.25 10.4032 3.195 10.2637 5.25 9.74999M1.5 16.5H16.5M9 16.5V13.5M9 5.24999V3.73649M9 3.73649V2.22749C9 1.87199 9 1.69424 9.1095 1.58399C9.4545 1.23674 10.875 2.05724 11.415 2.39024C11.871 2.67074 12 3.23174 12 3.73649H9Z" stroke="black" stroke-width="1.5" stroke-linecap="round" stroke-linejoin="round"/>
</g>
<defs>
<clipPath id="clip0_1356_1350">
<rect width="18" height="18" fill="white"/>
</clipPath>
</defs>
</svg>
