<svg width="16" height="17" viewBox="0 0 16 17" fill="none" xmlns="http://www.w3.org/2000/svg">
<path d="M13.9999 14.4999L11.1046 11.6046M11.1046 11.6046C11.5998 11.1093 11.9927 10.5213 12.2607 9.87426C12.5287 9.22717 12.6667 8.53363 12.6667 7.83323C12.6667 7.13283 12.5287 6.43928 12.2607 5.7922C11.9927 5.14511 11.5998 4.55715 11.1046 4.06189C10.6093 3.56663 10.0213 3.17377 9.37426 2.90574C8.72717 2.63771 8.03363 2.49976 7.33323 2.49976C6.63283 2.49976 5.93928 2.63771 5.2922 2.90574C4.64511 3.17377 4.05715 3.56663 3.56189 4.06189C2.56167 5.06211 1.99976 6.4187 1.99976 7.83323C1.99976 9.24775 2.56167 10.6043 3.56189 11.6046C4.56211 12.6048 5.9187 13.1667 7.33323 13.1667C8.74775 13.1667 10.1043 12.6048 11.1046 11.6046Z" stroke="#66666D" stroke-width="1.5" stroke-linecap="round" stroke-linejoin="round"/>
</svg>
