<svg width="20" height="20" viewBox="0 0 20 20" fill="none" xmlns="http://www.w3.org/2000/svg">
<path d="M6.43329 13.7133L7.90079 13.29L16.7366 4.34829C16.8063 4.27687 16.8451 4.1809 16.8447 4.08111C16.8442 3.98132 16.8045 3.88572 16.7341 3.81495L16.205 3.27995C16.1708 3.24482 16.1299 3.21684 16.0848 3.19767C16.0397 3.17849 15.9912 3.16849 15.9422 3.16826C15.8931 3.16803 15.8445 3.17756 15.7992 3.19631C15.7539 3.21506 15.7128 3.24264 15.6783 3.27745L6.86579 12.1958L6.43329 13.7133ZM17.2525 2.21995L17.7816 2.75579C18.5116 3.49495 18.5183 4.68745 17.795 5.41912L8.68996 14.6341L5.55329 15.5375C5.45847 15.5641 5.35932 15.5718 5.26151 15.5602C5.16371 15.5485 5.06915 15.5177 4.98326 15.4695C4.89736 15.4213 4.82181 15.3566 4.7609 15.2792C4.69999 15.2018 4.65493 15.1131 4.62829 15.0183C4.58742 14.8808 4.58685 14.7344 4.62663 14.5966L5.53913 11.3966L14.62 2.20579C14.7926 2.03192 14.9982 1.89417 15.2247 1.80058C15.4511 1.70699 15.694 1.65943 15.939 1.66067C16.184 1.66191 16.4264 1.71193 16.6519 1.80781C16.8774 1.90369 17.0816 2.04434 17.2525 2.21995ZM7.65329 3.18079C8.06663 3.18079 8.40163 3.51995 8.40163 3.93829C8.40228 4.03718 8.38344 4.13523 8.34618 4.22683C8.30892 4.31843 8.25397 4.4018 8.18447 4.47215C8.11497 4.5425 8.03228 4.59846 7.94114 4.63684C7.85 4.67521 7.75218 4.69524 7.65329 4.69579H4.65996C3.83329 4.69579 3.16329 5.37412 3.16329 6.20995V15.2983C3.16329 16.135 3.83329 16.8133 4.65996 16.8133H13.64C14.4666 16.8133 15.1375 16.135 15.1375 15.2983V12.2691C15.1375 11.8508 15.4725 11.5116 15.8858 11.5116C16.2991 11.5116 16.6341 11.8508 16.6341 12.27V15.2983C16.6341 16.9716 15.2933 18.3283 13.64 18.3283H4.65996C3.00663 18.3283 1.66663 16.9716 1.66663 15.2983V6.20995C1.66663 4.53745 3.00663 3.18079 4.65996 3.18079H7.65329Z" fill="#252528"/>
</svg>
