<svg width="16" height="17" viewBox="0 0 16 17" fill="none" xmlns="http://www.w3.org/2000/svg">
<path fill-rule="evenodd" clip-rule="evenodd" d="M7.99994 12.5C7.92113 12.4999 7.84345 12.4812 7.77324 12.4454C7.70304 12.4096 7.64228 12.3577 7.59594 12.294L3.59594 6.794C3.54174 6.71943 3.5092 6.63134 3.50193 6.53944C3.49466 6.44754 3.51294 6.35542 3.55474 6.27326C3.59655 6.19109 3.66025 6.12209 3.73882 6.07387C3.81739 6.02564 3.90776 6.00008 3.99994 6H11.9999C12.0921 6.00008 12.1825 6.02564 12.2611 6.07387C12.3396 6.12209 12.4033 6.19109 12.4451 6.27326C12.4869 6.35542 12.5052 6.44754 12.498 6.53944C12.4907 6.63134 12.4581 6.71943 12.4039 6.794L8.40394 12.294C8.3576 12.3577 8.29685 12.4096 8.22664 12.4454C8.15643 12.4812 8.07875 12.4999 7.99994 12.5Z" fill="#66666D"/>
</svg>
