<svg width="16" height="16" viewBox="0 0 16 16" fill="none" xmlns="http://www.w3.org/2000/svg">
<path d="M12.4048 7.35671V12.6427C12.4062 12.844 12.3675 13.0436 12.2908 13.2298C12.2141 13.4159 12.1011 13.5849 11.9583 13.7269C11.8155 13.8688 11.6458 13.9808 11.4592 14.0563C11.2726 14.1318 11.0728 14.1694 10.8715 14.1667H3.36679C3.16474 14.1693 2.96421 14.1314 2.77704 14.0553C2.58987 13.9791 2.41985 13.8663 2.277 13.7234C2.13415 13.5804 2.02136 13.4104 1.9453 13.2232C1.86923 13.036 1.83143 12.8354 1.83412 12.6334V5.12871C1.8317 4.92668 1.86972 4.7262 1.94592 4.53908C2.02212 4.35196 2.13497 4.18196 2.27784 4.0391C2.42071 3.89623 2.5907 3.78338 2.77783 3.70717C2.96495 3.63097 3.16542 3.59296 3.36745 3.59537H8.65279M14.1668 1.83337L7.11945 8.88071M14.1668 1.83337H10.6428M14.1668 1.83337V5.35737" stroke="black" stroke-linecap="round" stroke-linejoin="round"/>
</svg>
