<svg width="20" height="20" viewBox="0 0 20 20" fill="none" xmlns="http://www.w3.org/2000/svg">
<path d="M11.667 10.833H15.8337V9.16634H11.667V10.833ZM11.667 8.33301H15.8337V6.66634H11.667V8.33301ZM4.16699 13.333H10.8337V12.8747C10.8337 12.2497 10.5281 11.7533 9.91699 11.3855C9.30588 11.0177 8.50033 10.8336 7.50033 10.833C6.50033 10.8325 5.69477 11.0166 5.08366 11.3855C4.47255 11.7544 4.16699 12.2508 4.16699 12.8747V13.333ZM7.50033 9.99967C7.95866 9.99967 8.35116 9.83662 8.67783 9.51051C9.00449 9.1844 9.16755 8.7919 9.16699 8.33301C9.16644 7.87412 9.00338 7.4819 8.67783 7.15634C8.35227 6.83079 7.95977 6.66745 7.50033 6.66634C7.04088 6.66523 6.64866 6.82856 6.32366 7.15634C5.99866 7.48412 5.83533 7.87634 5.83366 8.33301C5.83199 8.78967 5.99533 9.18217 6.32366 9.51051C6.65199 9.83884 7.04421 10.0019 7.50033 9.99967ZM3.33366 16.6663C2.87533 16.6663 2.4831 16.5033 2.15699 16.1772C1.83088 15.8511 1.66755 15.4586 1.66699 14.9997V4.99967C1.66699 4.54134 1.83033 4.14912 2.15699 3.82301C2.48366 3.4969 2.87588 3.33356 3.33366 3.33301H16.667C17.1253 3.33301 17.5178 3.49634 17.8445 3.82301C18.1712 4.14967 18.3342 4.5419 18.3337 4.99967V14.9997C18.3337 15.458 18.1706 15.8505 17.8445 16.1772C17.5184 16.5038 17.1259 16.6669 16.667 16.6663H3.33366ZM3.33366 14.9997H16.667V4.99967H3.33366V14.9997Z" fill="#66666D"/>
</svg>
