<svg width="20" height="20" viewBox="0 0 20 20" fill="none" xmlns="http://www.w3.org/2000/svg">
<path d="M7.04163 7.08337L5.83329 5.87504C6.40274 5.33337 7.04524 4.9131 7.76079 4.61421C8.47635 4.31532 9.22274 4.16615 9.99996 4.16671C10.7772 4.16726 11.5238 4.31671 12.24 4.61504C12.9561 4.91337 13.5983 5.33337 14.1666 5.87504L12.9583 7.08337C12.5555 6.6806 12.1041 6.37171 11.6041 6.15671C11.1041 5.94171 10.5694 5.83393 9.99996 5.83337C9.43051 5.83282 8.89579 5.9406 8.39579 6.15671C7.89579 6.37282 7.4444 6.68171 7.04163 7.08337ZM4.70829 4.66671L3.54163 3.50004C4.41663 2.63893 5.40635 1.97921 6.51079 1.52087C7.61524 1.06254 8.77829 0.833374 9.99996 0.833374C11.2216 0.833374 12.385 1.06254 13.49 1.52087C14.595 1.97921 15.5844 2.63893 16.4583 3.50004L15.2916 4.66671C14.5833 3.97226 13.7708 3.43754 12.8541 3.06254C11.9375 2.68754 10.9861 2.50004 9.99996 2.50004C9.01385 2.50004 8.06246 2.68754 7.14579 3.06254C6.22913 3.43754 5.41663 3.97226 4.70829 4.66671ZM8.33329 18.3334C7.87496 18.3334 7.48274 18.1703 7.15663 17.8442C6.83052 17.5181 6.66718 17.1256 6.66663 16.6667V10C6.66663 9.54171 6.82996 9.14949 7.15663 8.82337C7.48329 8.49726 7.87551 8.33393 8.33329 8.33337H11.6666C12.125 8.33337 12.5175 8.49671 12.8441 8.82337C13.1708 9.15004 13.3338 9.54226 13.3333 10V16.6667C13.3333 17.125 13.1702 17.5175 12.8441 17.8442C12.518 18.1709 12.1255 18.3339 11.6666 18.3334H8.33329ZM11.6666 16.6667V10H8.33329V16.6667H11.6666Z" fill="#252528"/>
</svg>
