<svg width="18" height="18" viewBox="0 0 18 18" fill="none" xmlns="http://www.w3.org/2000/svg">
<path fill-rule="evenodd" clip-rule="evenodd" d="M6.13868 2.898C6.09719 2.73214 6.09405 2.55901 6.12949 2.39176C6.16494 2.22451 6.23804 2.06754 6.34323 1.93277C6.44843 1.798 6.58296 1.68898 6.73661 1.61399C6.89025 1.539 7.05896 1.50002 7.22993 1.5H10.7699C10.9409 1.50002 11.1096 1.539 11.2632 1.61399C11.4169 1.68898 11.5514 1.798 11.6566 1.93277C11.7618 2.06754 11.8349 2.22451 11.8704 2.39176C11.9058 2.55901 11.9027 2.73214 11.8612 2.898L11.2777 5.232L13.3229 12.0495C13.409 12.336 13.4074 12.6417 13.3184 12.9273C13.2294 13.2129 13.057 13.4654 12.8234 13.6522L9.46868 16.3358C9.33566 16.4423 9.17033 16.5003 8.99993 16.5003C8.82952 16.5003 8.6642 16.4423 8.53118 16.3358L5.17643 13.6522C4.94284 13.4654 4.77047 13.2129 4.68146 12.9273C4.59245 12.6417 4.59087 12.336 4.67693 12.0495L6.72218 5.232L6.13868 2.898ZM8.05793 6H9.94193L10.6169 8.25H9.74993C9.55101 8.25 9.36025 8.32902 9.2196 8.46967C9.07894 8.61032 8.99993 8.80109 8.99993 9C8.99993 9.19891 9.07894 9.38968 9.2196 9.53033C9.36025 9.67098 9.55101 9.75 9.74993 9.75H11.0669L11.8859 12.48L8.99993 14.79L6.11393 12.48L8.05793 6ZM10.2892 3L9.91418 4.5H8.08568L7.71068 3H10.2892Z" fill="black"/>
</svg>
