<svg width="18" height="18" viewBox="0 0 18 18" fill="none" xmlns="http://www.w3.org/2000/svg">
<path d="M4.59975 15.75C3.71625 15.75 3 15.015 3 14.1075V7.50599C3 7.00724 3.22125 6.53474 3.6 6.22349L8.00025 2.60999C8.28139 2.37718 8.63497 2.24979 9 2.24979C9.36503 2.24979 9.71861 2.37718 9.99975 2.60999L14.3992 6.22349C14.7787 6.53474 15 7.00724 15 7.50599V14.1075C15 15.015 14.2837 15.75 13.4002 15.75H4.59975Z" stroke="#252528" stroke-width="1.5" stroke-linecap="round" stroke-linejoin="round"/>
<path d="M7.125 15.75V11.625C7.125 11.2272 7.28304 10.8456 7.56434 10.5643C7.84564 10.283 8.22718 10.125 8.625 10.125H9.375C9.77282 10.125 10.1544 10.283 10.4357 10.5643C10.717 10.8456 10.875 11.2272 10.875 11.625V15.75" stroke="#252528" stroke-width="1.5" stroke-linecap="round" stroke-linejoin="round"/>
</svg>
