<svg width="18" height="18" viewBox="0 0 18 18" fill="none" xmlns="http://www.w3.org/2000/svg">
<path fill-rule="evenodd" clip-rule="evenodd" d="M13.125 17.25C14.219 17.25 15.2682 16.8154 16.0418 16.0418C16.8154 15.2682 17.25 14.219 17.25 13.125C17.25 12.031 16.8154 10.9818 16.0418 10.2082C15.2682 9.4346 14.219 9 13.125 9C12.031 9 10.9818 9.4346 10.2082 10.2082C9.4346 10.9818 9 12.031 9 13.125C9 14.219 9.4346 15.2682 10.2082 16.0418C10.9818 16.8154 12.031 17.25 13.125 17.25ZM13.125 10.5052C13.2245 10.5052 13.3198 10.5448 13.3902 10.6151C13.4605 10.6854 13.5 10.7808 13.5 10.8802V12.75H15.3698C15.4692 12.75 15.5646 12.7895 15.6349 12.8598C15.7052 12.9302 15.7448 13.0255 15.7448 13.125C15.7448 13.2245 15.7052 13.3198 15.6349 13.3902C15.5646 13.4605 15.4692 13.5 15.3698 13.5H13.5V15.3698C13.5 15.4692 13.4605 15.5646 13.3902 15.6349C13.3198 15.7052 13.2245 15.7448 13.125 15.7448C13.0255 15.7448 12.9302 15.7052 12.8598 15.6349C12.7895 15.5646 12.75 15.4692 12.75 15.3698V13.5H10.8802C10.7808 13.5 10.6854 13.4605 10.6151 13.3902C10.5448 13.3198 10.5052 13.2245 10.5052 13.125C10.5052 13.0255 10.5448 12.9302 10.6151 12.8598C10.6854 12.7895 10.7808 12.75 10.8802 12.75H12.75V10.8802C12.75 10.7808 12.7895 10.6854 12.8598 10.6151C12.9302 10.5448 13.0255 10.5052 13.125 10.5052Z" fill="black"/>
<path d="M3.375 14.3438C3.375 14.841 3.57254 15.3179 3.92417 15.6696C4.27581 16.0212 4.75272 16.2188 5.25 16.2188H8.7075M3.375 14.3438C3.375 13.8465 3.57254 13.3696 3.92417 13.0179C4.27581 12.6663 4.75272 12.4688 5.25 12.4688H7.74M3.375 14.3438V4.59375C3.375 3.99701 3.61205 3.42472 4.03401 3.00276C4.45597 2.5808 5.02826 2.34375 5.625 2.34375H13.875C14.0739 2.34375 14.2647 2.42277 14.4053 2.56342C14.546 2.70407 14.625 2.89484 14.625 3.09375V7.965" stroke="black" stroke-width="1.5" stroke-linecap="round" stroke-linejoin="round"/>
</svg>
