<svg width="18" height="18" viewBox="0 0 18 18" fill="none" xmlns="http://www.w3.org/2000/svg">
<path d="M7.21575 5.625H5.4375C4.54239 5.625 3.68395 5.98058 3.05101 6.61351C2.41808 7.24645 2.0625 8.10489 2.0625 9C2.0625 9.89511 2.41808 10.7535 3.05101 11.3865C3.68395 12.0194 4.54239 12.375 5.4375 12.375H7.21575M10.7842 5.625H12.5625C13.0057 5.625 13.4446 5.7123 13.8541 5.88191C14.2635 6.05152 14.6356 6.30012 14.949 6.61351C15.2624 6.92691 15.511 7.29897 15.6806 7.70844C15.8502 8.11792 15.9375 8.55679 15.9375 9C15.9375 9.44321 15.8502 9.88208 15.6806 10.2916C15.511 10.701 15.2624 11.0731 14.949 11.3865C14.6356 11.6999 14.2635 11.9485 13.8541 12.1181C13.4446 12.2877 13.0057 12.375 12.5625 12.375H10.7842M5.43225 9H12.5677" stroke="black" stroke-width="1.5" stroke-linecap="round" stroke-linejoin="round"/>
</svg>
