<svg width="18" height="18" viewBox="0 0 18 18" fill="none" xmlns="http://www.w3.org/2000/svg">
<path d="M2.46525 6.09599L2.64975 6.52049C2.67859 6.58961 2.72723 6.64866 2.78955 6.69019C2.85188 6.73172 2.9251 6.75389 3 6.75389C3.0749 6.75389 3.14812 6.73172 3.21045 6.69019C3.27277 6.64866 3.32141 6.58961 3.35025 6.52049L3.53475 6.09599C3.85914 5.34503 4.45321 4.74293 5.19975 4.40849L5.769 4.15424C5.83806 4.12247 5.89656 4.07156 5.93758 4.00756C5.97859 3.94355 6.00038 3.86913 6.00038 3.79311C6.00038 3.71709 5.97859 3.64267 5.93758 3.57867C5.89656 3.51466 5.83806 3.46375 5.769 3.43199L5.23125 3.19274C4.46595 2.84877 3.86171 2.2244 3.543 1.44824L3.35325 0.989987C3.32538 0.919002 3.27677 0.85806 3.21376 0.815106C3.15075 0.772151 3.07626 0.749176 3 0.749176C2.92374 0.749176 2.84925 0.772151 2.78624 0.815106C2.72323 0.85806 2.67462 0.919002 2.64675 0.989987L2.457 1.44749C2.13863 2.22379 1.53466 2.84844 0.769499 3.19274L0.231001 3.43274C0.162149 3.4646 0.103853 3.51549 0.0629959 3.57942C0.0221405 3.64334 0.000431061 3.71762 0.000431061 3.79349C0.000431061 3.86935 0.0221405 3.94363 0.0629959 4.00756C0.103853 4.07148 0.162149 4.12238 0.231001 4.15424L0.801001 4.40774C1.54739 4.74251 2.1412 5.34488 2.46525 6.09599ZM10.5 2.24999H7.5V3.74999H10.5C11.6935 3.74999 12.8381 4.22409 13.682 5.06801C14.5259 5.91192 15 7.05651 15 8.24999C15 10.9575 13.1535 12.7245 9 14.61V12.75H7.5C6.30653 12.75 5.16193 12.2759 4.31802 11.432C3.4741 10.5881 3 9.44346 3 8.24999H1.5C1.5 9.84129 2.13214 11.3674 3.25736 12.4926C4.38258 13.6178 5.9087 14.25 7.5 14.25V16.875C11.25 15.375 16.5 13.125 16.5 8.24999C16.5 6.65869 15.8679 5.13256 14.7426 4.00735C13.6174 2.88213 12.0913 2.24999 10.5 2.24999Z" fill="#252528"/>
</svg>
