<svg width="20" height="21" viewBox="0 0 20 21" fill="none" xmlns="http://www.w3.org/2000/svg">
<path d="M15.4417 10.058C15.5581 10.1756 15.6234 10.3343 15.6234 10.4997C15.6234 10.6651 15.5581 10.8239 15.4417 10.9414L11.275 15.108C11.2178 15.1694 11.1488 15.2187 11.0721 15.2529C10.9954 15.287 10.9127 15.3054 10.8288 15.3069C10.7448 15.3083 10.6615 15.2929 10.5837 15.2615C10.5058 15.23 10.4351 15.1833 10.3758 15.1239C10.3164 15.0646 10.2697 14.9939 10.2382 14.916C10.2068 14.8382 10.1914 14.7549 10.1928 14.6709C10.1943 14.587 10.2127 14.5043 10.2468 14.4276C10.281 14.3509 10.3303 14.2819 10.3917 14.2247L13.4917 11.1247H5C4.83424 11.1247 4.67526 11.0589 4.55805 10.9417C4.44084 10.8244 4.375 10.6655 4.375 10.4997C4.375 10.3339 4.44084 10.175 4.55805 10.0578C4.67526 9.94056 4.83424 9.87471 5 9.87471H13.4917L10.3917 6.77471C10.2813 6.65623 10.2212 6.49952 10.224 6.33761C10.2269 6.17569 10.2925 6.0212 10.407 5.90669C10.5215 5.79218 10.676 5.72659 10.8379 5.72373C10.9998 5.72087 11.1565 5.78098 11.275 5.89138L15.4417 10.058Z" fill="#252528"/>
</svg>
