<svg width="16" height="17" viewBox="0 0 16 17" fill="none" xmlns="http://www.w3.org/2000/svg">
<path d="M2.66669 3.83317C2.66669 3.65636 2.73693 3.48679 2.86195 3.36177C2.98697 3.23674 3.15654 3.1665 3.33335 3.1665H6.00002C6.17683 3.1665 6.3464 3.23674 6.47142 3.36177C6.59645 3.48679 6.66669 3.65636 6.66669 3.83317V6.49984C6.66669 6.67665 6.59645 6.84622 6.47142 6.97124C6.3464 7.09627 6.17683 7.1665 6.00002 7.1665H3.33335C3.15654 7.1665 2.98697 7.09627 2.86195 6.97124C2.73693 6.84622 2.66669 6.67665 2.66669 6.49984V3.83317ZM9.33335 3.83317C9.33335 3.65636 9.40359 3.48679 9.52862 3.36177C9.65364 3.23674 9.82321 3.1665 10 3.1665H12.6667C12.8435 3.1665 13.0131 3.23674 13.1381 3.36177C13.2631 3.48679 13.3334 3.65636 13.3334 3.83317V6.49984C13.3334 6.67665 13.2631 6.84622 13.1381 6.97124C13.0131 7.09627 12.8435 7.1665 12.6667 7.1665H10C9.82321 7.1665 9.65364 7.09627 9.52862 6.97124C9.40359 6.84622 9.33335 6.67665 9.33335 6.49984V3.83317ZM2.66669 10.4998C2.66669 10.323 2.73693 10.1535 2.86195 10.0284C2.98697 9.90341 3.15654 9.83317 3.33335 9.83317H6.00002C6.17683 9.83317 6.3464 9.90341 6.47142 10.0284C6.59645 10.1535 6.66669 10.323 6.66669 10.4998V13.1665C6.66669 13.3433 6.59645 13.5129 6.47142 13.6379C6.3464 13.7629 6.17683 13.8332 6.00002 13.8332H3.33335C3.15654 13.8332 2.98697 13.7629 2.86195 13.6379C2.73693 13.5129 2.66669 13.3433 2.66669 13.1665V10.4998ZM9.33335 10.4998C9.33335 10.323 9.40359 10.1535 9.52862 10.0284C9.65364 9.90341 9.82321 9.83317 10 9.83317H12.6667C12.8435 9.83317 13.0131 9.90341 13.1381 10.0284C13.2631 10.1535 13.3334 10.323 13.3334 10.4998V13.1665C13.3334 13.3433 13.2631 13.5129 13.1381 13.6379C13.0131 13.7629 12.8435 13.8332 12.6667 13.8332H10C9.82321 13.8332 9.65364 13.7629 9.52862 13.6379C9.40359 13.5129 9.33335 13.3433 9.33335 13.1665V10.4998Z" stroke="#66666D" stroke-linecap="round" stroke-linejoin="round"/>
</svg>
