<svg width="16" height="17" viewBox="0 0 16 17" fill="none" xmlns="http://www.w3.org/2000/svg">
<path d="M2.66669 4.49984C2.66669 4.14622 2.80716 3.80708 3.05721 3.55703C3.30726 3.30698 3.6464 3.1665 4.00002 3.1665H12C12.3536 3.1665 12.6928 3.30698 12.9428 3.55703C13.1929 3.80708 13.3334 4.14622 13.3334 4.49984V5.83317C13.3334 6.18679 13.1929 6.52593 12.9428 6.77598C12.6928 7.02603 12.3536 7.1665 12 7.1665H4.00002C3.6464 7.1665 3.30726 7.02603 3.05721 6.77598C2.80716 6.52593 2.66669 6.18679 2.66669 5.83317V4.49984ZM2.66669 11.1665C2.66669 10.8129 2.80716 10.4737 3.05721 10.2237C3.30726 9.97365 3.6464 9.83317 4.00002 9.83317H12C12.3536 9.83317 12.6928 9.97365 12.9428 10.2237C13.1929 10.4737 13.3334 10.8129 13.3334 11.1665V12.4998C13.3334 12.8535 13.1929 13.1926 12.9428 13.4426C12.6928 13.6927 12.3536 13.8332 12 13.8332H4.00002C3.6464 13.8332 3.30726 13.6927 3.05721 13.4426C2.80716 13.1926 2.66669 12.8535 2.66669 12.4998V11.1665Z" stroke="#252528" stroke-linecap="round" stroke-linejoin="round"/>
</svg>
