<svg width="16" height="16" viewBox="0 0 16 16" fill="none" xmlns="http://www.w3.org/2000/svg">
<path fill-rule="evenodd" clip-rule="evenodd" d="M7.99957 4C8.07838 4.00007 8.15606 4.01876 8.22627 4.05456C8.29648 4.09036 8.35723 4.14225 8.40357 4.206L12.4036 9.706C12.4578 9.78057 12.4903 9.86866 12.4976 9.96056C12.5049 10.0525 12.4866 10.1446 12.4448 10.2267C12.403 10.3089 12.3393 10.3779 12.2607 10.4261C12.1821 10.4744 12.0918 10.4999 11.9996 10.5H3.99957C3.90738 10.4999 3.81701 10.4744 3.73845 10.4261C3.65988 10.3779 3.59617 10.3089 3.55437 10.2267C3.51256 10.1446 3.49429 10.0525 3.50156 9.96056C3.50883 9.86866 3.54136 9.78057 3.59557 9.706L7.59557 4.206C7.64191 4.14225 7.70266 4.09036 7.77287 4.05456C7.84308 4.01876 7.92076 4.00007 7.99957 4Z" fill="black"/>
</svg>
